<svg width="33" height="32" viewBox="0 0 33 32" fill="none" xmlns="http://www.w3.org/2000/svg">
<path d="M5.19439 3.46967C4.9015 3.17678 4.42663 3.17678 4.13373 3.46967C3.84084 3.76256 3.84084 4.23744 4.13373 4.53033L5.19439 3.46967ZM28.1337 28.5303C28.4266 28.8232 28.9015 28.8232 29.1944 28.5303C29.4873 28.2374 29.4873 27.7626 29.1944 27.4697L28.1337 28.5303ZM12.0807 4C12.0807 3.58579 11.7449 3.25 11.3307 3.25C10.9165 3.25 10.5807 3.58579 10.5807 4H12.0807ZM10.5807 6.68C10.5807 7.09421 10.9165 7.43 11.3307 7.43C11.7449 7.43 12.0807 7.09421 12.0807 6.68H10.5807ZM22.7474 4C22.7474 3.58579 22.4116 3.25 21.9974 3.25C21.5832 3.25 21.2474 3.58579 21.2474 4H22.7474ZM21.2474 9.33333C21.2474 9.74755 21.5832 10.0833 21.9974 10.0833C22.4116 10.0833 22.7474 9.74755 22.7474 9.33333H21.2474ZM13.9974 14.0833C14.4116 14.0833 14.7474 13.7475 14.7474 13.3333C14.7474 12.9191 14.4116 12.5833 13.9974 12.5833V14.0833ZM17.9974 12.5833C17.5832 12.5833 17.2474 12.9191 17.2474 13.3333C17.2474 13.7475 17.5832 14.0833 17.9974 14.0833V12.5833ZM26.5807 22C26.5807 22.4142 26.9165 22.75 27.3307 22.75C27.7449 22.75 28.0807 22.4142 28.0807 22H26.5807ZM6.66406 6.75C7.07828 6.75 7.41406 6.41421 7.41406 6C7.41406 5.58579 7.07828 5.25 6.66406 5.25V6.75ZM27.2552 27.0765L26.5463 26.8314L26.5463 26.8314L27.2552 27.0765ZM28.0807 26.6667C28.0807 26.2525 27.7449 25.9167 27.3307 25.9167C26.9165 25.9167 26.5807 26.2525 26.5807 26.6667H28.0807ZM4.13373 4.53033L28.1337 28.5303L29.1944 27.4697L5.19439 3.46967L4.13373 4.53033ZM26.5807 9.33333V13.3333H28.0807V9.33333H26.5807ZM6.7474 25.3333V13.3333H5.2474V25.3333H6.7474ZM10.5807 4V6.66667H12.0807V4H10.5807ZM10.5807 6.66667V6.68H12.0807V6.66667H10.5807ZM21.2474 4V6.66667H22.7474V4H21.2474ZM21.2474 6.66667V9.33333H22.7474V6.66667H21.2474ZM11.3307 7.41667H21.9974V5.91667H11.3307V7.41667ZM21.9974 7.41667H24.6641V5.91667H21.9974V7.41667ZM6.7474 13.3333V7.33333H5.2474V13.3333H6.7474ZM13.9974 12.5833H5.9974V14.0833H13.9974V12.5833ZM27.3307 12.5833H17.9974V14.0833H27.3307V12.5833ZM26.5807 13.3333V22H28.0807V13.3333H26.5807ZM25.5595 27.25H8.66406V28.75H25.5595V27.25ZM6.7474 7.33333C6.7474 7.1636 6.77541 6.92345 6.83639 6.75404C6.86681 6.66956 6.88771 6.6531 6.87345 6.66781C6.84387 6.69832 6.76602 6.75 6.66406 6.75V5.25C5.88299 5.25 5.54423 5.91496 5.42506 6.24596C5.28605 6.6321 5.2474 7.05862 5.2474 7.33333H6.7474ZM27.964 27.3216C28.0303 27.1298 28.0807 26.9066 28.0807 26.6667H26.5807C26.5807 26.6986 26.5734 26.7531 26.5463 26.8314L27.964 27.3216ZM25.5595 28.75C26.3523 28.75 27.5683 28.4659 27.964 27.3216L26.5463 26.8314C26.5106 26.9347 26.4315 27.031 26.2611 27.1129C26.081 27.1994 25.8324 27.25 25.5595 27.25V28.75ZM5.2474 25.3333C5.2474 27.2203 6.77709 28.75 8.66406 28.75V27.25C7.60552 27.25 6.7474 26.3919 6.7474 25.3333H5.2474ZM28.0807 9.33333C28.0807 7.44636 26.551 5.91667 24.6641 5.91667V7.41667C25.7226 7.41667 26.5807 8.27479 26.5807 9.33333H28.0807Z" fill="#141C24"/>
</svg>
