<svg width="43" height="43" viewBox="0 0 43 43" fill="none" xmlns="http://www.w3.org/2000/svg">
<g clip-path="url(#clip0_2217_4883)">
<path d="M21.4969 42.9937C33.3692 42.9937 42.9937 33.3692 42.9937 21.4969C42.9937 9.62447 33.3692 0 21.4969 0C9.62447 0 0 9.62447 0 21.4969C0 33.3692 9.62447 42.9937 21.4969 42.9937Z" fill="#FFA72E"/>
<path fill-rule="evenodd" clip-rule="evenodd" d="M12.6797 9.74414H30.3155V33.2565H12.6797V9.74414ZM17.2461 19.4439C17.441 19.443 17.634 19.481 17.8141 19.5555C17.9941 19.6301 18.1575 19.7397 18.2947 19.8781C18.4319 20.0165 18.5401 20.1808 18.6131 20.3614C18.6862 20.5421 18.7225 20.7355 18.72 20.9303L20.282 21.346C20.4615 21.0175 20.7593 20.7696 21.1149 20.6526C21.4705 20.5356 21.8573 20.5583 22.1967 20.7162L24.4831 18.455C24.2711 18.1729 24.1684 17.8236 24.1939 17.4717C24.2193 17.1197 24.3713 16.7889 24.6217 16.5402C24.8266 16.3322 25.0889 16.19 25.3751 16.1319C25.6612 16.0737 25.9582 16.1023 26.2281 16.2139C26.4979 16.3255 26.7284 16.515 26.8899 16.7583C27.0514 17.0016 27.1367 17.2875 27.1348 17.5795C27.1356 17.8027 27.0855 18.0231 26.9882 18.224C26.891 18.4249 26.7493 18.601 26.5738 18.7388C26.3982 18.8767 26.1936 18.9727 25.9754 19.0196C25.7572 19.0664 25.5312 19.0629 25.3145 19.0093L22.8959 21.4027C23.0314 21.6768 23.0776 21.9865 23.0279 22.2881C22.9782 22.5898 22.8351 22.8683 22.6188 23.0844C22.4305 23.2754 22.1934 23.4111 21.9334 23.4769C21.6734 23.5426 21.4003 23.5358 21.1438 23.4573C20.8874 23.3787 20.6574 23.2314 20.4788 23.0313C20.3002 22.8312 20.1799 22.586 20.1308 22.3223L18.3798 21.8499C18.2407 22.0152 18.0672 22.1481 17.8714 22.2395C17.6756 22.3309 17.4622 22.3785 17.2461 22.379C16.9554 22.3796 16.6711 22.2938 16.4292 22.1326C16.1873 21.9714 15.9987 21.742 15.8874 21.4734C15.776 21.2049 15.747 20.9093 15.8038 20.6243C15.8607 20.3392 16.001 20.0774 16.2069 19.8722C16.3429 19.7348 16.5048 19.6258 16.6831 19.5512C16.8615 19.4766 17.0528 19.4443 17.2461 19.4439ZM15.3755 13.1705H27.6261V14.1531H15.3692V13.1642L15.3755 13.1705ZM15.3755 25.4212H27.6261V26.3974H15.3692L15.3755 25.4212ZM15.3755 28.8476H27.6261V29.8301H15.3692L15.3755 28.8476Z" fill="#FFFFFE"/>
</g>
<defs>
<clipPath id="clip0_2217_4883">
<rect width="43" height="43" fill="white"/>
</clipPath>
</defs>
</svg>
