<svg width="33" height="32" viewBox="0 0 33 32" fill="none" xmlns="http://www.w3.org/2000/svg">
<path d="M16.3385 5.33301L16.674 4.66219C16.4628 4.55661 16.2143 4.55661 16.0031 4.66219L16.3385 5.33301ZM5.67188 10.6663L5.33646 9.99552C5.08238 10.1226 4.92188 10.3823 4.92188 10.6663C4.92188 10.9504 5.08238 11.2101 5.33646 11.3372L5.67188 10.6663ZM16.3385 15.9997L16.0031 16.6705C16.2143 16.7761 16.4628 16.7761 16.674 16.6705L16.3385 15.9997ZM27.0052 10.6663L27.3406 11.3372C27.5947 11.2101 27.7552 10.9504 27.7552 10.6663C27.7552 10.3823 27.5947 10.1226 27.3406 9.99552L27.0052 10.6663ZM6.00729 15.3289C5.6368 15.1436 5.1863 15.2938 5.00105 15.6643C4.81581 16.0347 4.96598 16.4853 5.33646 16.6705L6.00729 15.3289ZM16.3385 21.333L16.0031 22.0038C16.2143 22.1094 16.4628 22.1094 16.674 22.0038L16.3385 21.333ZM27.3406 16.6705C27.7111 16.4853 27.8613 16.0347 27.676 15.6643C27.4908 15.2938 27.0403 15.1436 26.6698 15.3289L27.3406 16.6705ZM6.00729 20.6622C5.6368 20.4769 5.1863 20.6271 5.00105 20.9976C4.81581 21.3681 4.96598 21.8186 5.33646 22.0038L6.00729 20.6622ZM16.3385 26.6663L16.0031 27.3372C16.2143 27.4427 16.4628 27.4427 16.674 27.3372L16.3385 26.6663ZM27.3406 22.0038C27.7111 21.8186 27.8613 21.3681 27.676 20.9976C27.4908 20.6271 27.0403 20.4769 26.6698 20.6622L27.3406 22.0038ZM16.0031 4.66219L5.33646 9.99552L6.00729 11.3372L16.674 6.00383L16.0031 4.66219ZM5.33646 11.3372L16.0031 16.6705L16.674 15.3289L6.00729 9.99552L5.33646 11.3372ZM16.674 16.6705L27.3406 11.3372L26.6698 9.99552L16.0031 15.3289L16.674 16.6705ZM27.3406 9.99552L16.674 4.66219L16.0031 6.00383L26.6698 11.3372L27.3406 9.99552ZM5.33646 16.6705L16.0031 22.0038L16.674 20.6622L6.00729 15.3289L5.33646 16.6705ZM16.674 22.0038L27.3406 16.6705L26.6698 15.3289L16.0031 20.6622L16.674 22.0038ZM5.33646 22.0038L16.0031 27.3372L16.674 25.9955L6.00729 20.6622L5.33646 22.0038ZM16.674 27.3372L27.3406 22.0038L26.6698 20.6622L16.0031 25.9955L16.674 27.3372Z" fill="#141C24"/>
</svg>
