<svg width="39" height="38" viewBox="0 0 39 38" fill="none" xmlns="http://www.w3.org/2000/svg">
<path d="M30.3307 15.4375H29.5807H30.3307ZM19.2474 33.25L18.7776 33.8346C19.052 34.0551 19.4428 34.0551 19.7172 33.8346L19.2474 33.25ZM23.2474 15.8333C23.2474 18.0425 21.4565 19.8333 19.2474 19.8333V21.3333C22.285 21.3333 24.7474 18.8709 24.7474 15.8333H23.2474ZM19.2474 19.8333C17.0383 19.8333 15.2474 18.0425 15.2474 15.8333H13.7474C13.7474 18.8709 16.2098 21.3333 19.2474 21.3333V19.8333ZM15.2474 15.8333C15.2474 13.6242 17.0383 11.8333 19.2474 11.8333V10.3333C16.2098 10.3333 13.7474 12.7958 13.7474 15.8333H15.2474ZM19.2474 11.8333C21.4565 11.8333 23.2474 13.6242 23.2474 15.8333H24.7474C24.7474 12.7958 22.285 10.3333 19.2474 10.3333V11.8333ZM29.5807 15.4375C29.5807 19.6128 26.9619 23.89 24.2118 27.2047C22.8515 28.8445 21.4891 30.2132 20.4662 31.1721C19.9553 31.6511 19.5303 32.0267 19.2343 32.2815C19.0863 32.4089 18.9707 32.5061 18.8927 32.5708C18.8538 32.6031 18.8243 32.6274 18.8048 32.6432C18.7951 32.6512 18.7879 32.657 18.7834 32.6607C18.7811 32.6625 18.7795 32.6639 18.7785 32.6646C18.778 32.665 18.7777 32.6653 18.7775 32.6654C18.7775 32.6655 18.7775 32.6655 18.7774 32.6655C18.7775 32.6654 18.7776 32.6654 19.2474 33.25C19.7172 33.8346 19.7174 33.8345 19.7176 33.8343C19.7177 33.8342 19.718 33.834 19.7183 33.8338C19.7188 33.8334 19.7195 33.8328 19.7203 33.8321C19.722 33.8307 19.7244 33.8288 19.7275 33.8263C19.7336 33.8214 19.7423 33.8143 19.7535 33.8051C19.7761 33.7867 19.8088 33.7599 19.851 33.7248C19.9354 33.6547 20.0579 33.5518 20.213 33.4183C20.5231 33.1513 20.964 32.7615 21.4921 32.2664C22.5474 31.2771 23.9558 29.8626 25.3663 28.1625C28.1579 24.7975 31.0807 20.1685 31.0807 15.4375H29.5807ZM19.2474 33.25C19.7172 32.6654 19.7173 32.6654 19.7173 32.6655C19.7173 32.6655 19.7173 32.6655 19.7172 32.6654C19.7171 32.6653 19.7168 32.665 19.7163 32.6646C19.7153 32.6639 19.7137 32.6625 19.7114 32.6607C19.7068 32.657 19.6997 32.6512 19.69 32.6432C19.6705 32.6274 19.641 32.6031 19.602 32.5708C19.5241 32.5061 19.4085 32.4089 19.2605 32.2815C18.9645 32.0267 18.5395 31.6511 18.0286 31.1721C17.0057 30.2132 15.6433 28.8445 14.2829 27.2047C11.5329 23.89 8.91406 19.6128 8.91406 15.4375H7.41406C7.41406 20.1685 10.3369 24.7975 13.1285 28.1625C14.539 29.8626 15.9474 31.2771 17.0027 32.2664C17.5308 32.7615 17.9717 33.1513 18.2818 33.4183C18.4369 33.5518 18.5594 33.6547 18.6438 33.7248C18.686 33.7599 18.7187 33.7867 18.7412 33.8051C18.7525 33.8143 18.7612 33.8214 18.7673 33.8263C18.7704 33.8288 18.7727 33.8307 18.7745 33.8321C18.7753 33.8328 18.776 33.8334 18.7765 33.8338C18.7768 33.834 18.7771 33.8342 18.7772 33.8343C18.7774 33.8345 18.7776 33.8346 19.2474 33.25ZM8.91406 15.4375C8.91406 9.97465 13.5145 5.5 19.2474 5.5V4C12.738 4 7.41406 9.09527 7.41406 15.4375H8.91406ZM19.2474 5.5C24.9803 5.5 29.5807 9.97465 29.5807 15.4375H31.0807C31.0807 9.09527 25.7568 4 19.2474 4V5.5Z" fill="#141C24"/>
</svg>
