<svg width="43" height="43" viewBox="0 0 43 43" fill="none" xmlns="http://www.w3.org/2000/svg">
<g clip-path="url(#clip0_2217_4868)">
<path d="M21.1692 42.3385C32.8607 42.3385 42.3385 32.8607 42.3385 21.1692C42.3385 9.47779 32.8607 0 21.1692 0C9.47779 0 0 9.47779 0 21.1692C0 32.8607 9.47779 42.3385 21.1692 42.3385Z" fill="#D7008A"/>
<path d="M18.2163 19.8454C17.9234 19.5525 17.4485 19.5525 17.1556 19.8454C16.8627 20.1383 16.8627 20.6132 17.1556 20.9061L18.2163 19.8454ZM20.1859 22.8758L19.6556 23.4061C19.9485 23.699 20.4234 23.699 20.7163 23.4061L20.1859 22.8758ZM25.9053 18.217C26.1982 17.9241 26.1982 17.4493 25.9053 17.1564C25.6124 16.8635 25.1376 16.8635 24.8447 17.1564L25.9053 18.217ZM20.6566 9.84888L20.8626 10.57L20.6566 9.84888ZM21.3434 9.84888L21.5494 9.12773V9.12773L21.3434 9.84888ZM21.7265 31.7318L21.2906 31.1215H21.2906L21.7265 31.7318ZM20.2735 31.7318L19.8375 32.3421L20.2735 31.7318ZM12.25 19.568H11.5H12.25ZM17.4845 29.7397L17.9205 29.1294L17.4845 29.7397ZM24.5155 29.7397L24.9514 30.35L24.5155 29.7397ZM28.8434 11.9917L28.6374 12.7129L28.8434 11.9917ZM13.1566 11.9917L12.9506 11.2706L13.1566 11.9917ZM29 13.1936V19.568H30.5V13.1936H29ZM13 19.568V13.1936L11.5 13.1936V19.568H13ZM24.0795 29.1294L21.2906 31.1215L22.1625 32.3421L24.9514 30.35L24.0795 29.1294ZM20.7094 31.1215L17.9205 29.1294L17.0486 30.35L19.8375 32.3421L20.7094 31.1215ZM13.3626 12.7129L20.8626 10.57L20.4506 9.12773L12.9506 11.2706L13.3626 12.7129ZM21.1374 10.57L28.6374 12.7129L29.0494 11.2706L21.5494 9.12773L21.1374 10.57ZM17.1556 20.9061L19.6556 23.4061L20.7163 22.3454L18.2163 19.8454L17.1556 20.9061ZM20.7163 23.4061L25.9053 18.217L24.8447 17.1564L19.6556 22.3454L20.7163 23.4061ZM20.8626 10.57C20.9524 10.5444 21.0476 10.5444 21.1374 10.57L21.5494 9.12773C21.1903 9.02513 20.8097 9.02513 20.4506 9.12773L20.8626 10.57ZM21.2906 31.1215C21.1168 31.2457 20.8832 31.2457 20.7094 31.1215L19.8375 32.3421C20.5329 32.8388 21.4671 32.8388 22.1625 32.3421L21.2906 31.1215ZM11.5 19.568C11.5 23.8471 13.5665 27.8628 17.0486 30.35L17.9205 29.1294C14.8326 26.9238 13 23.3627 13 19.568H11.5ZM29 19.568C29 23.3627 27.1674 26.9238 24.0795 29.1294L24.9514 30.35C28.4335 27.8628 30.5 23.8471 30.5 19.568H29ZM30.5 13.1936C30.5 12.3007 29.908 11.5159 29.0494 11.2706L28.6374 12.7129C28.852 12.7742 29 12.9704 29 13.1936H30.5ZM13 13.1936C13 12.9704 13.148 12.7742 13.3626 12.7129L12.9506 11.2706C12.092 11.5159 11.5 12.3007 11.5 13.1936L13 13.1936Z" fill="white"/>
</g>
<defs>
<clipPath id="clip0_2217_4868">
<rect width="43" height="43" fill="white"/>
</clipPath>
</defs>
</svg>
