<svg width="43" height="43" viewBox="0 0 43 43" fill="none" xmlns="http://www.w3.org/2000/svg">
<g clip-path="url(#clip0_2217_4852)">
<path d="M21.4974 42.6685C33.1888 42.6685 42.6666 33.1908 42.6666 21.4993C42.6666 9.80787 33.1888 0.330078 21.4974 0.330078C9.80591 0.330078 0.328125 9.80787 0.328125 21.4993C0.328125 33.1908 9.80591 42.6685 21.4974 42.6685Z" fill="#1C008A"/>
<path d="M29.1946 18.9034H28.4446H29.1946ZM20.6481 32.6389L20.1783 33.2235C20.4527 33.444 20.8435 33.444 21.1179 33.2235L20.6481 32.6389ZM23.5609 19.2086C23.5609 20.8173 22.2568 22.1214 20.6481 22.1214V23.6214C23.0852 23.6214 25.0609 21.6457 25.0609 19.2086H23.5609ZM20.6481 22.1214C19.0394 22.1214 17.7353 20.8173 17.7353 19.2086H16.2353C16.2353 21.6457 18.211 23.6214 20.6481 23.6214V22.1214ZM17.7353 19.2086C17.7353 17.5999 19.0394 16.2958 20.6481 16.2958V14.7958C18.211 14.7958 16.2353 16.7715 16.2353 19.2086H17.7353ZM20.6481 16.2958C22.2568 16.2958 23.5609 17.5999 23.5609 19.2086H25.0609C25.0609 16.7715 23.0852 14.7958 20.6481 14.7958V16.2958ZM28.4446 18.9034C28.4446 22.0594 26.4599 25.3173 24.3441 27.8676C23.3008 29.1252 22.2555 30.1754 21.4705 30.9113C21.0785 31.2788 20.7526 31.5669 20.526 31.762C20.4127 31.8595 20.3243 31.9338 20.2649 31.983C20.2353 32.0077 20.2129 32.0261 20.1982 32.038C20.1909 32.044 20.1856 32.0483 20.1822 32.051C20.1805 32.0524 20.1794 32.0533 20.1787 32.0539C20.1784 32.0541 20.1782 32.0543 20.1781 32.0544C20.1781 32.0544 20.1781 32.0544 20.1781 32.0544C20.1782 32.0543 20.1783 32.0542 20.6481 32.6389C21.1179 33.2235 21.118 33.2233 21.1182 33.2232C21.1184 33.2231 21.1186 33.2229 21.1188 33.2227C21.1193 33.2224 21.1198 33.2219 21.1205 33.2213C21.122 33.2202 21.1239 33.2186 21.1263 33.2167C21.1312 33.2127 21.1381 33.2071 21.1469 33.1999C21.1647 33.1854 21.1903 33.1644 21.2232 33.1371C21.289 33.0824 21.3842 33.0024 21.5047 32.8987C21.7454 32.6914 22.0872 32.3892 22.4964 32.0056C23.3139 31.2393 24.4052 30.1433 25.4985 28.8254C27.656 26.2249 29.9446 22.6151 29.9446 18.9034H28.4446ZM20.6481 32.6389C21.1179 32.0542 21.118 32.0543 21.118 32.0544C21.118 32.0544 21.1181 32.0544 21.118 32.0544C21.118 32.0543 21.1178 32.0541 21.1174 32.0539C21.1168 32.0533 21.1156 32.0524 21.1139 32.051C21.1106 32.0483 21.1052 32.044 21.0979 32.038C21.0833 32.0261 21.0609 32.0077 21.0312 31.983C20.9719 31.9338 20.8835 31.8595 20.7702 31.762C20.5436 31.5669 20.2177 31.2788 19.8256 30.9113C19.0406 30.1754 17.9953 29.1252 16.952 27.8676C14.8362 25.3173 12.8516 22.0594 12.8516 18.9034H11.3516C11.3516 22.6151 13.6402 26.2249 15.7976 28.8254C16.8909 30.1433 17.9823 31.2393 18.7997 32.0056C19.2089 32.3892 19.5507 32.6914 19.7915 32.8987C19.9119 33.0024 20.0071 33.0824 20.073 33.1371C20.1059 33.1644 20.1315 33.1854 20.1492 33.1999C20.1581 33.2071 20.165 33.2127 20.1698 33.2167C20.1723 33.2186 20.1742 33.2202 20.1756 33.2213C20.1763 33.2219 20.1769 33.2224 20.1773 33.2227C20.1776 33.2229 20.1778 33.2231 20.1779 33.2232C20.1781 33.2233 20.1783 33.2235 20.6481 32.6389ZM12.8516 18.9034C12.8516 14.7915 16.3162 11.4121 20.6481 11.4121V9.91211C15.5397 9.91211 11.3516 13.9122 11.3516 18.9034H12.8516ZM20.6481 11.4121C24.9799 11.4121 28.4446 14.7915 28.4446 18.9034H29.9446C29.9446 13.9122 25.7565 9.91211 20.6481 9.91211V11.4121Z" fill="white"/>
</g>
<defs>
<clipPath id="clip0_2217_4852">
<rect width="43" height="43" fill="white"/>
</clipPath>
</defs>
</svg>
