<svg width="32" height="32" viewBox="0 0 32 32" fill="none" xmlns="http://www.w3.org/2000/svg">
<path d="M20.0026 10.6663V11.4163C20.4168 11.4163 20.7526 11.0806 20.7526 10.6663H20.0026ZM12.0026 10.6663H11.2526C11.2526 11.0806 11.5884 11.4163 12.0026 11.4163V10.6663ZM12.7526 15.9997C12.7526 15.5855 12.4168 15.2497 12.0026 15.2497C11.5884 15.2497 11.2526 15.5855 11.2526 15.9997H12.7526ZM11.2526 18.6663C11.2526 19.0806 11.5884 19.4163 12.0026 19.4163C12.4168 19.4163 12.7526 19.0806 12.7526 18.6663H11.2526ZM20.7526 15.9997C20.7526 15.5855 20.4168 15.2497 20.0026 15.2497C19.5884 15.2497 19.2526 15.5855 19.2526 15.9997H20.7526ZM19.2526 18.6663C19.2526 19.0806 19.5884 19.4163 20.0026 19.4163C20.4168 19.4163 20.7526 19.0806 20.7526 18.6663H19.2526ZM8.0026 11.4163H24.0026V9.91634H8.0026V11.4163ZM22.6693 16.583H9.33594V18.083H22.6693V16.583ZM9.33594 16.583C7.54101 16.583 6.08594 15.1279 6.08594 13.333H4.58594C4.58594 15.9564 6.71259 18.083 9.33594 18.083V16.583ZM25.9193 13.333C25.9193 15.1279 24.4642 16.583 22.6693 16.583V18.083C25.2926 18.083 27.4193 15.9564 27.4193 13.333H25.9193ZM24.0026 11.4163C25.0611 11.4163 25.9193 12.2745 25.9193 13.333H27.4193C27.4193 11.446 25.8896 9.91634 24.0026 9.91634V11.4163ZM8.0026 9.91634C6.11563 9.91634 4.58594 11.446 4.58594 13.333H6.08594C6.08594 12.2745 6.94406 11.4163 8.0026 11.4163V9.91634ZM14.6693 6.08301H17.3359V4.58301H14.6693V6.08301ZM19.2526 7.99967V10.6663H20.7526V7.99967H19.2526ZM20.0026 9.91634H12.0026V11.4163H20.0026V9.91634ZM12.7526 10.6663V7.99967H11.2526V10.6663H12.7526ZM17.3359 6.08301C18.3945 6.08301 19.2526 6.94113 19.2526 7.99967H20.7526C20.7526 6.1127 19.2229 4.58301 17.3359 4.58301V6.08301ZM14.6693 4.58301C12.7823 4.58301 11.2526 6.1127 11.2526 7.99967H12.7526C12.7526 6.94113 13.6107 6.08301 14.6693 6.08301V4.58301ZM25.9193 13.333V23.9997H27.4193V13.333H25.9193ZM24.0026 25.9163H8.0026V27.4163H24.0026V25.9163ZM6.08594 23.9997V13.333H4.58594V23.9997H6.08594ZM8.0026 25.9163C6.94406 25.9163 6.08594 25.0582 6.08594 23.9997H4.58594C4.58594 25.8866 6.11563 27.4163 8.0026 27.4163V25.9163ZM25.9193 23.9997C25.9193 25.0582 25.0611 25.9163 24.0026 25.9163V27.4163C25.8896 27.4163 27.4193 25.8866 27.4193 23.9997H25.9193ZM11.2526 15.9997V18.6663H12.7526V15.9997H11.2526ZM19.2526 15.9997V18.6663H20.7526V15.9997H19.2526Z" fill="#141C24"/>
</svg>
