<svg width="32" height="32" viewBox="0 0 32 32" fill="none" xmlns="http://www.w3.org/2000/svg">
<path d="M24.5859 10.6663C24.5859 11.0806 24.9217 11.4163 25.3359 11.4163C25.7502 11.4163 26.0859 11.0806 26.0859 10.6663H24.5859ZM26.0859 21.333C26.0859 20.9188 25.7502 20.583 25.3359 20.583C24.9217 20.583 24.5859 20.9188 24.5859 21.333H26.0859ZM22.6693 15.2497C22.2551 15.2497 21.9193 15.5855 21.9193 15.9997C21.9193 16.4139 22.2551 16.7497 22.6693 16.7497V15.2497ZM22.6826 16.7497C23.0968 16.7497 23.4326 16.4139 23.4326 15.9997C23.4326 15.5855 23.0968 15.2497 22.6826 15.2497V16.7497ZM8.0026 6.08301H22.6693V4.58301H8.0026V6.08301ZM22.6693 25.9163H8.0026V27.4163H22.6693V25.9163ZM6.08594 23.9997V7.99967H4.58594V23.9997H6.08594ZM24.5859 7.99967V10.6663H26.0859V7.99967H24.5859ZM24.5859 21.333V23.9997H26.0859V21.333H24.5859ZM8.0026 25.9163C6.94406 25.9163 6.08594 25.0582 6.08594 23.9997H4.58594C4.58594 25.8866 6.11563 27.4163 8.0026 27.4163V25.9163ZM22.6693 27.4163C24.5562 27.4163 26.0859 25.8866 26.0859 23.9997H24.5859C24.5859 25.0582 23.7278 25.9163 22.6693 25.9163V27.4163ZM22.6693 6.08301C23.7278 6.08301 24.5859 6.94113 24.5859 7.99967H26.0859C26.0859 6.1127 24.5562 4.58301 22.6693 4.58301V6.08301ZM8.0026 4.58301C6.11563 4.58301 4.58594 6.1127 4.58594 7.99967H6.08594C6.08594 6.94113 6.94406 6.08301 8.0026 6.08301V4.58301ZM18.6693 11.4163H26.6693V9.91634H18.6693V11.4163ZM27.2526 11.9997V19.9997H28.7526V11.9997H27.2526ZM26.6693 20.583H18.6693V22.083H26.6693V20.583ZM18.0859 19.9997V11.9997H16.5859V19.9997H18.0859ZM18.6693 20.583C18.3471 20.583 18.0859 20.3218 18.0859 19.9997H16.5859C16.5859 21.1503 17.5187 22.083 18.6693 22.083V20.583ZM27.2526 19.9997C27.2526 20.3218 26.9914 20.583 26.6693 20.583V22.083C27.8199 22.083 28.7526 21.1503 28.7526 19.9997H27.2526ZM26.6693 11.4163C26.9914 11.4163 27.2526 11.6775 27.2526 11.9997H28.7526C28.7526 10.8491 27.8199 9.91634 26.6693 9.91634V11.4163ZM18.6693 9.91634C17.5187 9.91634 16.5859 10.8491 16.5859 11.9997H18.0859C18.0859 11.6775 18.3471 11.4163 18.6693 11.4163V9.91634ZM22.6693 16.7497H22.6826V15.2497H22.6693V16.7497Z" fill="#141C24"/>
</svg>
