<svg width="24" height="24" viewBox="0 0 24 24" fill="none" xmlns="http://www.w3.org/2000/svg">
<path d="M1.5 11.1C1.5 7.73969 1.5 6.05953 2.15396 4.77606C2.7292 3.64708 3.64708 2.7292 4.77606 2.15396C6.05953 1.5 7.73969 1.5 11.1 1.5H12.9C16.2603 1.5 17.9405 1.5 19.2239 2.15396C20.3529 2.7292 21.2708 3.64708 21.846 4.77606C22.5 6.05953 22.5 7.73969 22.5 11.1V12.9C22.5 16.2603 22.5 17.9405 21.846 19.2239C21.2708 20.3529 20.3529 21.2708 19.2239 21.846C17.9405 22.5 16.2603 22.5 12.9 22.5H11.1C7.73969 22.5 6.05953 22.5 4.77606 21.846C3.64708 21.2708 2.7292 20.3529 2.15396 19.2239C1.5 17.9405 1.5 16.2603 1.5 12.9V11.1Z" fill="#97A1AF"/>
<path d="M1.5 11.1C1.5 7.73969 1.5 6.05953 2.15396 4.77606C2.7292 3.64708 3.64708 2.7292 4.77606 2.15396C6.05953 1.5 7.73969 1.5 11.1 1.5H12.9C16.2603 1.5 17.9405 1.5 19.2239 2.15396C20.3529 2.7292 21.2708 3.64708 21.846 4.77606C22.5 6.05953 22.5 7.73969 22.5 11.1V12.9C22.5 16.2603 22.5 17.9405 21.846 19.2239C21.2708 20.3529 20.3529 21.2708 19.2239 21.846C17.9405 22.5 16.2603 22.5 12.9 22.5H11.1C7.73969 22.5 6.05953 22.5 4.77606 21.846C3.64708 21.2708 2.7292 20.3529 2.15396 19.2239C1.5 17.9405 1.5 16.2603 1.5 12.9V11.1Z" fill="#97A1AF"/>
<path d="M1.5 11.1C1.5 7.73969 1.5 6.05953 2.15396 4.77606C2.7292 3.64708 3.64708 2.7292 4.77606 2.15396C6.05953 1.5 7.73969 1.5 11.1 1.5H12.9C16.2603 1.5 17.9405 1.5 19.2239 2.15396C20.3529 2.7292 21.2708 3.64708 21.846 4.77606C22.5 6.05953 22.5 7.73969 22.5 11.1V12.9C22.5 16.2603 22.5 17.9405 21.846 19.2239C21.2708 20.3529 20.3529 21.2708 19.2239 21.846C17.9405 22.5 16.2603 22.5 12.9 22.5H11.1C7.73969 22.5 6.05953 22.5 4.77606 21.846C3.64708 21.2708 2.7292 20.3529 2.15396 19.2239C1.5 17.9405 1.5 16.2603 1.5 12.9V11.1Z" fill="#97A1AF"/>
<path d="M17.25 7.875C17.25 8.49632 16.7463 9 16.125 9C15.5037 9 15 8.49632 15 7.875C15 7.25368 15.5037 6.75 16.125 6.75C16.7463 6.75 17.25 7.25368 17.25 7.875Z" fill="#F9FAFB"/>
<path fill-rule="evenodd" clip-rule="evenodd" d="M12 15.75C14.0711 15.75 15.75 14.0711 15.75 12C15.75 9.92893 14.0711 8.25 12 8.25C9.92893 8.25 8.25 9.92893 8.25 12C8.25 14.0711 9.92893 15.75 12 15.75ZM12 14.25C13.2426 14.25 14.25 13.2426 14.25 12C14.25 10.7574 13.2426 9.75 12 9.75C10.7574 9.75 9.75 10.7574 9.75 12C9.75 13.2426 10.7574 14.25 12 14.25Z" fill="#F9FAFB"/>
<path fill-rule="evenodd" clip-rule="evenodd" d="M4.5 11.7C4.5 9.17976 4.5 7.91965 4.99047 6.95704C5.4219 6.11031 6.11031 5.4219 6.95704 4.99047C7.91965 4.5 9.17976 4.5 11.7 4.5H12.3C14.8202 4.5 16.0804 4.5 17.043 4.99047C17.8897 5.4219 18.5781 6.11031 19.0095 6.95704C19.5 7.91965 19.5 9.17976 19.5 11.7V12.3C19.5 14.8202 19.5 16.0804 19.0095 17.043C18.5781 17.8897 17.8897 18.5781 17.043 19.0095C16.0804 19.5 14.8202 19.5 12.3 19.5H11.7C9.17976 19.5 7.91965 19.5 6.95704 19.0095C6.11031 18.5781 5.4219 17.8897 4.99047 17.043C4.5 16.0804 4.5 14.8202 4.5 12.3V11.7ZM11.7 6H12.3C13.5849 6 14.4583 6.00117 15.1334 6.05633C15.7911 6.11006 16.1274 6.20745 16.362 6.32698C16.9265 6.6146 17.3854 7.07354 17.673 7.63803C17.7926 7.87263 17.8899 8.20893 17.9437 8.86656C17.9988 9.54169 18 10.4151 18 11.7V12.3C18 13.5849 17.9988 14.4583 17.9437 15.1334C17.8899 15.7911 17.7926 16.1274 17.673 16.362C17.3854 16.9265 16.9265 17.3854 16.362 17.673C16.1274 17.7926 15.7911 17.8899 15.1334 17.9437C14.4583 17.9988 13.5849 18 12.3 18H11.7C10.4151 18 9.54169 17.9988 8.86656 17.9437C8.20893 17.8899 7.87263 17.7926 7.63803 17.673C7.07354 17.3854 6.6146 16.9265 6.32698 16.362C6.20745 16.1274 6.11006 15.7911 6.05633 15.1334C6.00117 14.4583 6 13.5849 6 12.3V11.7C6 10.4151 6.00117 9.54169 6.05633 8.86656C6.11006 8.20893 6.20745 7.87263 6.32698 7.63803C6.6146 7.07354 7.07354 6.6146 7.63803 6.32698C7.87263 6.20745 8.20893 6.11006 8.86656 6.05633C9.54169 6.00117 10.4151 6 11.7 6Z" fill="#F9FAFB"/>
</svg>
