<svg width="24" height="24" viewBox="0 0 24 24" fill="none" xmlns="http://www.w3.org/2000/svg">
<path d="M15 10C15 11.6569 13.6569 13 12 13C10.3431 13 9 11.6569 9 10C9 8.34315 10.3431 7 12 7C13.6569 7 15 8.34315 15 10Z" stroke="url(#paint0_linear_1982_15073)" stroke-width="1.5" stroke-linecap="round" stroke-linejoin="round"/>
<path d="M19 9.75C19 15.375 12 21 12 21C12 21 5 15.375 5 9.75C5 6.02208 8.13401 3 12 3C15.866 3 19 6.02208 19 9.75Z" stroke="url(#paint1_linear_1982_15073)" stroke-width="1.5" stroke-linecap="round" stroke-linejoin="round"/>
<defs>
<linearGradient id="paint0_linear_1982_15073" x1="5" y1="21" x2="21.2067" y2="18.7259" gradientUnits="userSpaceOnUse">
<stop stop-color="#FFA72E"/>
<stop offset="1" stop-color="#DF33A1"/>
</linearGradient>
<linearGradient id="paint1_linear_1982_15073" x1="5" y1="21" x2="21.2067" y2="18.7259" gradientUnits="userSpaceOnUse">
<stop stop-color="#FFA72E"/>
<stop offset="1" stop-color="#DF33A1"/>
</linearGradient>
</defs>
</svg>
