<svg width="201" height="36" viewBox="0 0 201 36" fill="none" xmlns="http://www.w3.org/2000/svg">
<path d="M15.5694 24.912V11.088C15.5694 7.99174 16.8411 5.19246 18.8909 3.18085C16.8866 1.21389 14.1385 0 11.1062 0C4.97242 0 0 4.96421 0 11.088V24.912C0 31.0357 4.97242 36 11.1062 36C14.1385 36 16.8866 34.7861 18.8909 32.8192C16.8411 30.8075 15.5694 28.0082 15.5694 24.912Z" fill="#1C008A"/>
<path d="M31.3591 11.088C31.3591 8.04758 32.5852 5.29338 34.5703 3.29029C32.5573 1.25888 29.7637 0 26.6754 0C23.6429 0 20.8948 1.21389 18.8906 3.18085C20.9404 5.19246 22.2121 7.99183 22.2121 11.088V24.912C22.2121 28.0083 20.9404 30.8075 18.8906 32.8192C20.8948 34.7861 23.6429 36 26.6754 36C29.7637 36 32.5573 34.7411 34.5703 32.7098C32.5852 30.7067 31.3591 27.9524 31.3591 24.912V11.088Z" fill="#D7008A"/>
<path d="M22.2131 24.9118V11.0878C22.2131 7.99156 20.9414 5.19228 18.8916 3.18066C16.8419 5.19228 15.5703 7.99156 15.5703 11.0878V24.9118C15.5703 28.008 16.8419 30.8073 18.8916 32.819C20.9414 30.8073 22.2131 28.008 22.2131 24.9118Z" fill="#63009A"/>
<path d="M42.4654 0C39.3771 0 36.5834 1.25888 34.5703 3.2902C36.5554 5.2933 37.7815 8.04758 37.7815 11.088V24.912C37.7815 27.9524 36.5554 30.7066 34.5703 32.7097C36.5834 34.7411 39.3769 36 42.4652 36C48.5988 36 53.5714 31.0357 53.5714 24.912V11.088C53.5714 4.96421 48.599 0 42.4654 0Z" fill="#FFA72E"/>
<path d="M37.7818 11.0878C37.7818 8.04733 36.5557 5.29314 34.5706 3.29004C32.5855 5.29314 31.3594 8.04733 31.3594 11.0878V24.9117C31.3594 27.9522 32.5855 30.7065 34.5706 32.7096C36.5557 30.7065 37.7818 27.9522 37.7818 24.9117V11.0878Z" fill="#FF4E7C"/>
<path d="M72.3278 18.8607V30.5325H67.8594V19.7627C67.8594 14.7183 70.3749 12.2129 75.3729 12.2129C77.6236 12.2129 79.3447 12.714 80.6026 13.7162C81.8604 12.7474 83.5815 12.2797 85.8322 12.2797C90.8302 12.2797 93.3126 14.7851 93.2796 19.8294V30.5992H90.9957C89.5393 30.4991 88.8111 29.7975 88.8111 28.3945V18.9275C88.7119 17.0902 87.7189 16.1882 85.766 16.1882C83.8131 16.1882 82.8202 17.0902 82.7871 18.9275V30.5325H78.3518V18.8607C78.2525 17.0234 77.2595 16.1214 75.3067 16.1214C73.3538 16.1214 72.3608 17.0234 72.3278 18.8607Z" fill="#1100A0"/>
<path d="M100.361 17.0901H95.9592C96.4889 13.8163 98.7727 12.2129 102.811 12.2129C107.643 12.2129 110.093 13.8163 110.192 17.0901V23.1032C110.192 27.9805 107.279 30.1518 102.546 30.4859C98.3424 30.8199 95.4297 28.8491 95.4297 24.9405C95.529 20.698 98.5741 19.5621 103.009 19.1279C104.896 18.894 105.856 18.3262 105.856 17.3574C105.757 16.3552 104.83 15.8541 103.009 15.8541C101.454 15.8541 100.593 16.255 100.361 17.0901ZM105.922 22.9027V21.2659C104.896 21.7001 103.704 22.0676 102.414 22.3349C100.659 22.6689 99.7657 23.504 99.7657 24.8069C99.8649 26.2099 100.593 26.8781 101.983 26.8781C104.433 26.8781 105.922 25.4081 105.922 22.9027Z" fill="#1100A0"/>
<path d="M117.835 15.6544H117.372V25.9937C117.372 26.7287 117.802 27.1295 118.663 27.1295H120.02V30.5035C118.597 30.6372 117.041 30.6372 115.386 30.4701C113.731 30.3031 112.937 29.2675 112.97 27.2966V7.43652H115.254C116.412 7.43652 117.372 8.50552 117.372 9.67474V12.4808H120.02V13.4496C120.02 14.719 119.06 15.6544 117.835 15.6544Z" fill="#1100A0"/>
<path d="M129.686 30.5527C124.39 30.3856 121.742 27.2788 121.742 21.2659C121.742 15.2527 124.423 12.2463 129.752 12.2129C135.313 12.2129 137.928 15.6537 137.597 22.5687H126.277C126.442 25.2746 127.601 26.6442 129.752 26.6442C130.778 26.6442 131.738 26.2099 132.599 25.3748C132.996 24.9405 133.492 24.7401 134.088 24.7401H137.332C136.372 28.4815 133.989 30.5527 129.686 30.5527ZM126.343 19.3952H132.93C132.665 17.0567 131.573 15.8541 129.686 15.8541C127.799 15.8541 126.674 17.0567 126.343 19.3952Z" fill="#1100A0"/>
<path d="M152.325 30.5224C150.869 30.4221 150.141 29.7206 150.141 28.3176V18.8607C150.042 17.0233 149.049 16.1214 147.096 16.1214C145.143 16.1214 144.15 17.0233 144.117 18.8607V30.5224H139.648V19.7627C139.648 14.7183 142.164 12.2129 147.162 12.2129C152.16 12.2129 154.609 14.7183 154.576 19.7627V30.5224H152.325Z" fill="#1100A0"/>
<path d="M164.205 26.9449C166.058 26.9449 166.985 26.4105 166.985 25.2746C166.985 24.3727 165.463 23.6378 162.451 23.1032C158.578 22.4017 156.592 20.6646 156.559 17.8919C156.559 14.0836 159.538 12.2797 163.543 12.2129C165.794 12.2129 167.581 12.714 168.905 13.7162C170.196 14.7518 170.891 16.1882 170.99 18.0256H168.21C167.184 17.9921 166.522 17.6247 166.257 16.9231C165.959 16.1549 165.065 15.7205 163.609 15.7205C161.888 15.7205 161.027 16.1882 161.027 17.0902C161.027 17.9921 162.153 18.6936 164.437 19.128C167.416 19.7293 169.368 20.4976 170.328 21.3996C171.156 22.2682 171.553 23.3371 171.553 24.5397C171.553 28.8824 168.177 30.486 163.543 30.486C161.094 30.486 159.24 29.9514 158.048 28.9159C156.725 27.9137 156.062 26.377 156.062 24.3392H160.564C160.663 26.2768 162.054 26.9449 164.205 26.9449Z" fill="#1100A0"/>
<path d="M178.01 17.0901H173.608C174.137 13.8163 176.421 12.2129 180.459 12.2129C185.292 12.2129 187.741 13.8163 187.84 17.0901V23.1032C187.84 27.9805 184.928 30.1518 180.194 30.4859C175.991 30.8199 173.078 28.8491 173.078 24.9405C173.177 20.698 176.223 19.5621 180.658 19.1279C182.544 18.894 183.504 18.3262 183.504 17.3574C183.405 16.3552 182.478 15.8541 180.658 15.8541C179.102 15.8541 178.242 16.255 178.01 17.0901ZM183.571 22.9027V21.2659C182.544 21.7001 181.353 22.0676 180.062 22.3349C178.308 22.6689 177.414 23.504 177.414 24.8069C177.513 26.2099 178.242 26.8781 179.632 26.8781C182.081 26.8781 183.571 25.4081 183.571 22.9027Z" fill="#1100A0"/>
<path d="M195.52 14.4455C197.995 14.4455 200.001 12.4207 200.001 9.92293C200.001 7.4252 197.995 5.40039 195.52 5.40039C193.045 5.40039 191.039 7.4252 191.039 9.92293C191.039 12.4207 193.045 14.4455 195.52 14.4455Z" stroke="#1100A0" stroke-width="0.5" stroke-linecap="round" stroke-linejoin="round"/>
<path d="M192.602 8.15332H194.939M193.771 8.15332V11.6927M195.719 11.6927V8.15332L196.888 9.72638L198.057 8.15332V11.6927" stroke="#1100A0" stroke-width="0.5" stroke-linecap="round" stroke-linejoin="round"/>
</svg>
