<svg width="24" height="21" viewBox="0 0 24 21" fill="none" xmlns="http://www.w3.org/2000/svg">
<path d="M12.8432 15.8872C14.5577 16.6423 16.5766 17.1865 18.9451 17.4188C19.5168 17.4749 20 17.0164 20 16.442V14.8049C20 14.335 19.6728 13.9284 19.2137 13.828L16.4927 13.2328C16.1828 13.165 15.8592 13.2482 15.6205 13.4571L12.8432 15.8872ZM12.8432 15.8872C9.72749 14.5152 7.61705 12.4469 6.24117 10.289M6.24117 10.289C4.96414 8.28614 4.3199 6.20611 4.09204 4.53396C4.01545 3.97194 4.47161 3.5 5.03882 3.5H7.20278C7.66922 3.5 8.07371 3.82247 8.17764 4.27718L8.86693 7.29284C8.94889 7.65141 8.82739 8.02603 8.55058 8.26824L6.24117 10.289Z" stroke="url(#paint0_linear_1982_15066)" stroke-width="1.5"/>
<defs>
<linearGradient id="paint0_linear_1982_15066" x1="4" y1="17.5" x2="22.1164" y2="13.7647" gradientUnits="userSpaceOnUse">
<stop stop-color="#FFA72E"/>
<stop offset="1" stop-color="#DF33A1"/>
</linearGradient>
</defs>
</svg>
